ffmpeg version 8.0.1 Copyright (c) 2000-2025 the FFmpeg developers
  built with Apple clang version 16.0.0 (clang-1600.0.26.6)
  configuration: --prefix=/opt/homebrew/Cellar/ffmpeg/8.0.1 --enable-shared --enable-pthreads --enable-version3 --cc=clang --host-cflags= --host-ldflags= --enable-ffplay --enable-gnutls --enable-gpl --enable-libaom --enable-libaribb24 --enable-libbluray --enable-libdav1d --enable-libharfbuzz --enable-libjxl --enable-libmp3lame --enable-libopus --enable-librav1e --enable-librist --enable-librubberband --enable-libsnappy --enable-libsrt --enable-libssh --enable-libsvtav1 --enable-libtesseract --enable-libtheora --enable-libvidstab --enable-libvmaf --enable-libvorbis --enable-libvpx --enable-libwebp --enable-libx264 --enable-libx265 --enable-libxml2 --enable-libxvid --enable-lzma --enable-libfontconfig --enable-libfreetype --enable-frei0r --enable-libass --enable-libopencore-amrnb --enable-libopencore-amrwb --enable-libopenjpeg --enable-libspeex --enable-libsoxr --enable-libzmq --enable-libzimg --disable-libjack --disable-indev=jack --enable-videotoolbox --enable-audiotoolbox --enable-neon
  libavutil      60.  8.100 / 60.  8.100
  libavcodec     62. 11.100 / 62. 11.100
  libavformat    62.  3.100 / 62.  3.100
  libavdevice    62.  1.100 / 62.  1.100
  libavfilter    11.  4.100 / 11.  4.100
  libswscale      9.  1.100 /  9.  1.100
  libswresample   6.  1.100 /  6.  1.100
[avfoundation @ 0x916c2c000] Stream #0: not enough frames to estimate rate; consider increasing probesize
Input #0, avfoundation, from '1':
  Duration: N/A, start: 569281.586530, bitrate: N/A
  Stream #0:0: Video: rawvideo (UYVY / 0x59565955), uyvy422, 1920x1080, 1000k tbr, 1000k tbn, start 569281.586530
Stream mapping:
  Stream #0:0 -> #0:0 (rawvideo (native) -> hevc (hevc_videotoolbox))
Press [q] to stop, [?] for help
Output #0, null, to 'pipe:':
  Metadata:
    encoder         : Lavf62.3.100
  Stream #0:0: Video: hevc, ayuv(tv, progressive), 1920x1080, q=2-31, 10000 kb/s, 1000k fps, 1000k tbn
    Metadata:
      encoder         : Lavc62.11.100 hevc_videotoolbox
frame=   10 fps=0.0 q=-0.0 size=N/A time=00:00:00.30 bitrate=N/A speed=0.596x elapsed=0:00:00.50    frame=   25 fps= 25 q=-0.0 size=N/A time=00:00:00.80 bitrate=N/A speed=0.793x elapsed=0:00:01.00    frame=   41 fps= 27 q=-0.0 size=N/A time=00:00:01.33 bitrate=N/A speed=0.882x elapsed=0:00:01.51    frame=   55 fps= 27 q=-0.0 size=N/A time=00:00:01.80 bitrate=N/A speed=0.89x elapsed=0:00:02.02    frame=   71 fps= 28 q=-0.0 size=N/A time=00:00:02.33 bitrate=N/A speed=0.923x elapsed=0:00:02.52    frame=   86 fps= 28 q=-0.0 size=N/A time=00:00:02.83 bitrate=N/A speed=0.935x elapsed=0:00:03.03    frame=  100 fps= 28 q=-0.0 size=N/A time=00:00:03.33 bitrate=N/A speed=0.943x elapsed=0:00:03.53    frame=  115 fps= 28 q=-0.0 size=N/A time=00:00:03.83 bitrate=N/A speed=0.95x elapsed=0:00:04.03    frame=  130 fps= 29 q=-0.0 size=N/A time=00:00:04.33 bitrate=N/A speed=0.955x elapsed=0:00:04.53    frame=  145 fps= 29 q=-0.0 size=N/A time=00:00:04.83 bitrate=N/A speed=0.954x elapsed=0:00:05.06    frame=  160 fps= 29 q=-0.0 size=N/A time=00:00:05.36 bitrate=N/A speed=0.963x elapsed=0:00:05.57    frame=  175 fps= 29 q=-0.0 size=N/A time=00:00:05.86 bitrate=N/A speed=0.966x elapsed=0:00:06.07    frame=  190 fps= 29 q=-0.0 size=N/A time=00:00:06.36 bitrate=N/A speed=0.968x elapsed=0:00:06.58    frame=  206 fps= 29 q=-0.0 size=N/A time=00:00:06.90 bitrate=N/A speed=0.974x elapsed=0:00:07.08    frame=  219 fps= 29 q=-0.0 size=N/A time=00:00:07.37 bitrate=N/A speed=0.97x elapsed=0:00:07.59    frame=  234 fps= 29 q=-0.0 size=N/A time=00:00:07.90 bitrate=N/A speed=0.976x elapsed=0:00:08.09    frame=  249 fps= 29 q=-0.0 size=N/A time=00:00:08.40 bitrate=N/A speed=0.977x elapsed=0:00:08.60    frame=  264 fps= 29 q=-0.0 size=N/A time=00:00:08.90 bitrate=N/A speed=0.977x elapsed=0:00:09.11    frame=  280 fps= 29 q=-0.0 size=N/A time=00:00:09.43 bitrate=N/A speed=0.981x elapsed=0:00:09.62    [out#0/null @ 0x9171a0d80] video:12473KiB audio:0KiB subtitle:0KiB other streams:0KiB global headers:0KiB muxing overhead: unknown
frame=  296 fps= 30 q=-0.0 Lsize=N/A time=00:00:09.97 bitrate=N/A speed=0.996x elapsed=0:00:10.00    
